<svg xmlns="http://www.w3.org/2000/svg" width="224.443" height="631.089" viewBox="0 0 224.443 631.089"><g id="Group_1" data-name="Group 1" transform="translate(-1262.218 -266)"><path id="Path_12" fill="#ffb8b8" d="M931.645,294.753l-5.933,39.482L857.906,380.1s-35.65,17.084-33.406,27.7c2,9.461,29.51,8.341,38.167-6.289l81.067-36.854,27.112-53.674Z" data-name="Path 12" transform="translate(438.5 131.794)"/><path id="Path_13" fill="#ffb8b8" d="M806.5,558.589l3,42,29-2-5-40Z" data-name="Path 13" transform="translate(564 266)"/><path id="Path_14" fill="#2f2e41" d="M940,721.794s-4-15-8-14l-6,11s-27,25-35,26c0,0-26,8,0,20h30s20-1,24,0,27,1,28-5-3-18-3-18-3.688-29.5-7.844-23.751A78.524,78.524,0,0,1,955,726.794Z" data-name="Path 14" transform="translate(438.5 131.794)"/><path id="Path_15" fill="#ffb8b8" d="M881.5,559.089l3,42,29-2-5-40Z" data-name="Path 15" transform="translate(564 266)"/><path id="Path_16" fill="#2f2e41" d="M1015,722.294s-4-15-8-14l-6,11s-27,25-35,26c0,0-26,8,0,20h30s20-2,24-1,27,1,28-5-3-17-3-17-3.688-29.5-7.844-23.751a78.538,78.538,0,0,1-7.156,8.751Z" data-name="Path 16" transform="translate(438.5 131.794)"/><path id="Path_17" fill="#2f2e41" d="M893,435.294l-5,7v14l32,119,6,26s0,100,6,100,33,3,33-3-2-142-2-142l27,51s12,90,16,91,32,0,34-6l-6-57s1-64-16-78c0,0-3-17-6-24s-8-11-5-16-4-60-4-60,2-17-2-22S893,435.294,893,435.294Z" data-name="Path 17" transform="translate(438.5 131.794)"/><circle id="Ellipse_7" cx="31" cy="31" r="31" fill="#ffb8b8" data-name="Ellipse 7" transform="translate(1364.5 278.089)"/><path id="Path_18" fill="#ffb8b8" d="M976.5,195.794l-2,20,8,7-51,24c12.563-21.464,16.284-41.008,10-55Z" data-name="Path 18" transform="translate(438.5 131.794)"/><path id="Path_19" fill="#d0cde1" d="M941.5,225.794s-8,16,2,12l31-22s34,13,46,28l-10,106-8,75s5,9,4,10-2-1-1,2,4,0,1,3-6,0-3,3,0,4,0,4-4-24-39-6-50,23-76,1l30-114,2.422-43a177.113,177.113,0,0,1,7.611-42.315c2.293-7.423,6.288-14.718,12.967-18.689Z" data-name="Path 19" transform="translate(438.5 131.794)"/><path id="Path_20" fill="#ffb8b8" d="M995,313.294l15,37-35,74s-8,9-3,20a132.178,132.178,0,0,0,9,17s9-4,9-21l51-73-4-60Z" data-name="Path 20" transform="translate(438.5 131.794)"/><path id="Path_21" fill="#d0cde1" d="M993,247.294s-14,14-8,36,11,39,11,39,24-18,44-7c0,0-3-65-20-71S993,247.294,993,247.294Z" data-name="Path 21" transform="translate(438.5 131.794)"/><path id="Path_22" fill="#2f2e41" d="M982.484,150.7s-9.471-20.521-27.625-15.786-28.414,11.839-29.2,18.943.395,17.759.395,17.759,1.973-14.6,14.6-11.445,32.361.789,32.361.789l3.157,28.414s5.384-5.739,9.33-2.582S995.113,157.015,982.484,150.7Z" data-name="Path 22" transform="translate(438.5 131.794)"/><path id="Path_23" fill="#3f3d56" d="M825.658,373.716h0l18.457-4.275a4.028,4.028,0,0,1,4.536,2.174l18.906,39.206a3.255,3.255,0,0,1-2.042,4.545L846.758,420.7a4.3,4.3,0,0,1-5.125-2.436l-12.064-28.021-.368.2-2.3-5.309.382-.2-3.367-7.822a2.48,2.48,0,0,1,1.738-3.4Z" data-name="Path 23" transform="translate(438.5 131.794)"/><path id="Path_24" fill="#00adb5" d="M841.892,370.9l2.154-.5a2.783,2.783,0,0,1,3.143,1.52l18.454,38.955a1.725,1.725,0,0,1-1.06,2.389l-18.625,5.62a2.234,2.234,0,0,1-2.7-1.257L825.8,376.987a1.956,1.956,0,0,1,1.356-2.678l2.044-.473a.923.923,0,0,1,1.023.465h0a.815.815,0,0,0,.9.41l9.7-2.247a1.393,1.393,0,0,0,1.063-1.567Z" data-name="Path 24" transform="translate(438.5 131.794)"/></g></svg>