<svg fill="#00adb5" xmlns:dc="http://purl.org/dc/elements/1.1/" xmlns:cc="http://creativecommons.org/ns#" xmlns:rdf="http://www.w3.org/1999/02/22-rdf-syntax-ns#" xmlns:svg="http://www.w3.org/2000/svg" xmlns="http://www.w3.org/2000/svg" xmlns:sodipodi="http://sodipodi.sourceforge.net/DTD/sodipodi-0.dtd" xmlns:inkscape="http://www.inkscape.org/namespaces/inkscape" viewBox="0 0 16.933333 21.166666250000002" version="1.1" x="0px" y="0px"><g transform="translate(0,-280.06669)"><path style="color:#00adb5;font-style:normal;font-variant:normal;font-weight:normal;font-stretch:normal;font-size:medium;line-height:normal;font-family:sans-serif;font-variant-ligatures:normal;font-variant-position:normal;font-variant-caps:normal;font-variant-numeric:normal;font-variant-alternates:normal;font-feature-settings:normal;text-indent:0;text-align:start;text-decoration:none;text-decoration-line:none;text-decoration-style:solid;text-decoration-color:#00adb5;letter-spacing:normal;word-spacing:normal;text-transform:none;writing-mode:lr-tb;direction:ltr;text-orientation:mixed;dominant-baseline:auto;baseline-shift:baseline;text-anchor:start;white-space:normal;shape-padding:0;clip-rule:nonzero;display:inline;overflow:visible;visibility:visible;opacity:1;isolation:auto;mix-blend-mode:normal;color-interpolation:sRGB;color-interpolation-filters:linearRGB;solid-color:#00adb5;solid-opacity:1;vector-effect:none;fill:#00adb5;fill-opacity:1;fill-rule:evenodd;stroke:none;stroke-width:3.99999976;stroke-linecap:round;stroke-linejoin:round;stroke-miterlimit:4;stroke-dasharray:none;stroke-dashoffset:30.23622131;stroke-opacity:1;paint-order:stroke fill markers;color-rendering:auto;image-rendering:auto;shape-rendering:auto;text-rendering:auto;enable-background:accumulate" d="M 8.0019531 2 C 4.7125705 2 2 4.7106015 2 8 A 2.0004921 2.0004921 0 1 0 6.0019531 8 C 6.0019531 6.857411 6.8593656 6 8.0019531 6 L 23.998047 6 C 25.140634 6 25.998047 6.857411 25.998047 8 L 25.998047 23.998047 C 25.998047 25.140636 25.140634 25.998047 23.998047 25.998047 L 8.0019531 25.998047 C 6.8593656 25.998047 6.0019531 25.140636 6.0019531 23.998047 L 6.0019531 19.996094 A 2.0004921 2.0004921 0 1 0 2 19.996094 L 2 23.998047 C 2 27.287445 4.7125705 29.998047 8.0019531 29.998047 L 23.998047 29.998047 C 27.287429 29.998047 30 27.287445 30 23.998047 L 30 8 C 30 4.7106015 27.287429 2 23.998047 2 L 8.0019531 2 z M 40.001953 2 C 36.712571 2 34.001953 4.7106015 34.001953 8 L 34.001953 23.998047 C 34.001953 27.287445 36.712571 29.998047 40.001953 29.998047 L 55.998047 29.998047 C 59.28743 29.998047 62 27.287445 62 23.998047 L 62 8 C 62 4.7106015 59.28743 2 55.998047 2 L 40.001953 2 z M 40.001953 6 L 55.998047 6 C 57.140636 6 58 6.857411 58 8 L 58 23.998047 C 58 25.140636 57.140636 25.998047 55.998047 25.998047 L 40.001953 25.998047 C 38.859364 25.998047 38.001953 25.140636 38.001953 23.998047 L 38.001953 8 C 38.001953 6.857411 38.859364 6 40.001953 6 z M 8.0019531 34 C 4.7125705 34 2 36.712555 2 40.001953 L 2 55.998047 C 2 59.287445 4.7125705 62 8.0019531 62 L 23.998047 62 C 27.287429 62 30 59.287445 30 55.998047 L 30 40.001953 C 30 36.712555 27.287429 34 23.998047 34 L 8.0019531 34 z M 47.996094 34 C 40.287796 34 34.001953 40.295597 34.001953 48.003906 C 34.001953 55.712215 40.287796 62 47.996094 62 C 55.704391 62 62 55.712215 62 48.003906 C 62 40.295597 55.704391 34 47.996094 34 z M 8.0019531 38 L 23.998047 38 C 25.140634 38 25.998047 38.859326 25.998047 40.001953 L 25.998047 55.998047 C 25.998047 57.140674 25.140634 57.998047 23.998047 57.998047 L 8.0019531 57.998047 C 6.8593656 57.998047 6.0019531 57.140674 6.0019531 55.998047 L 6.0019531 40.001953 C 6.0019531 38.859326 6.8593656 38 8.0019531 38 z M 47.996094 38 C 53.54263 38 58 42.457374 58 48.003906 C 58 53.550439 53.54263 57.998047 47.996094 57.998047 C 42.449558 57.998047 38.001953 53.550439 38.001953 48.003906 C 38.001949 42.457374 42.449558 38 47.996094 38 z " transform="matrix(0.26458333,0,0,0.26458333,0,280.06669)"/></g></svg>